<svg id="Layer_1" data-name="Layer 1" xmlns="http://www.w3.org/2000/svg" xmlns:xlink="http://www.w3.org/1999/xlink" viewBox="0 0 564.44 189.58"><defs><style>.cls-1,.cls-5{fill:none;}.cls-1,.cls-5,.cls-8{stroke:#000;stroke-miterlimit:10;}.cls-2{font-size:28.58px;font-family:HelveticaNeue-Light, Helvetica Neue;}.cls-2,.cls-4{font-weight:300;}.cls-3{letter-spacing:-0.02em;}.cls-4{font-size:156.16px;font-family:Helvetica-Light, Helvetica;}.cls-5,.cls-8{stroke-width:0.5px;}.cls-6{clip-path:url(#clip-path);}.cls-7{fill:#12375f;}.cls-8{fill:#febc15;}</style><clipPath id="clip-path" transform="translate(-8.32 7.41)"><rect class="cls-1" x="8.82" y="11.4" width="117.17" height="117.17"/></clipPath></defs><text class="cls-2" transform="translate(0.67 170.04)">A Clusters App<tspan class="cls-3" x="185.24" y="0">r</tspan><tspan x="193.73" y="0">oach to Statistical Mechanics</tspan></text><text class="cls-4" transform="translate(122.04 134.14)">CASM</text><line class="cls-5" x1="0.67" y1="78.1" x2="117.84" y2="78.1"/><line class="cls-5" x1="0.5" y1="99.76" x2="47.23" y2="18.82"/><line class="cls-5" x1="90.5" y1="136.09" x2="22.85" y2="18.92"/><line class="cls-5" x1="23.66" y1="135.98" x2="91.18" y2="19.03"/><line class="cls-5" x1="67.85" y1="135.98" x2="117.84" y2="49.39"/><line class="cls-5" x1="46.09" y1="135.98" x2="0.3" y2="56.64"/><line class="cls-5" x1="0.5" y1="116.5" x2="117.67" y2="116.5"/><line class="cls-5" x1="0.5" y1="39.7" x2="117.67" y2="39.7"/><line class="cls-5" x1="117.84" y1="105.89" x2="67.56" y2="18.82"/><line class="cls-5" x1="2.21" y1="135.98" x2="0.5" y2="133.03"/><line class="cls-5" x1="117.67" y1="29.44" x2="111.54" y2="18.82"/><line class="cls-5" x1="0.5" y1="22.76" x2="2.78" y2="18.82"/><line class="cls-5" x1="112.76" y1="135.98" x2="117.36" y2="128.01"/><g class="cls-6"><circle class="cls-7" cx="123.02" cy="38.7" r="9.19"/><circle class="cls-7" cx="123.92" cy="116.42" r="9.19"/></g><rect class="cls-1" x="0.5" y="18.82" width="117.17" height="117.17"/><rect class="cls-1" x="0.5" y="18.82" width="117.17" height="117.17"/><circle class="cls-8" cx="34.85" cy="39.7" r="9.19"/><circle class="cls-8" cx="79.62" cy="39.7" r="9.19"/><circle class="cls-8" cx="13" cy="78.1" r="9.19"/><circle class="cls-7" cx="57.08" cy="78.1" r="9.19"/><circle class="cls-7" cx="101.26" cy="78.1" r="9.19"/><circle class="cls-8" cx="79.14" cy="116.42" r="9.19"/><circle class="cls-8" cx="34.96" cy="116.5" r="9.19"/></svg>