<svg id="Layer_1" data-name="Layer 1" xmlns="http://www.w3.org/2000/svg" xmlns:xlink="http://www.w3.org/1999/xlink" viewBox="0 0 133.11 118.17"><defs><style>.cls-1,.cls-2{fill:none;}.cls-1,.cls-2,.cls-5{stroke:#000;stroke-miterlimit:10;}.cls-2,.cls-5{stroke-width:0.5px;}.cls-3{clip-path:url(#clip-path);}.cls-4{fill:#12375f;}.cls-5{fill:#febc15;}</style><clipPath id="clip-path" transform="translate(-1.12 -1.22)"><rect class="cls-1" x="1.62" y="1.72" width="117.17" height="117.17"/></clipPath></defs><line class="cls-2" x1="0.67" y1="59.79" x2="117.84" y2="59.79"/><line class="cls-2" x1="0.5" y1="81.44" x2="47.23" y2="0.5"/><line class="cls-2" x1="90.5" y1="117.78" x2="22.85" y2="0.61"/><line class="cls-2" x1="23.66" y1="117.67" x2="91.18" y2="0.72"/><line class="cls-2" x1="67.85" y1="117.67" x2="117.84" y2="31.08"/><line class="cls-2" x1="46.09" y1="117.67" x2="0.3" y2="38.33"/><line class="cls-2" x1="0.5" y1="98.19" x2="117.67" y2="98.19"/><line class="cls-2" x1="0.5" y1="21.39" x2="117.67" y2="21.39"/><line class="cls-2" x1="117.84" y1="87.57" x2="67.56" y2="0.5"/><line class="cls-2" x1="2.21" y1="117.67" x2="0.5" y2="114.71"/><line class="cls-2" x1="117.67" y1="11.12" x2="111.54" y2="0.5"/><line class="cls-2" x1="0.5" y1="4.45" x2="2.78" y2="0.5"/><line class="cls-2" x1="112.76" y1="117.67" x2="117.36" y2="109.7"/><g class="cls-3"><circle class="cls-4" cx="123.02" cy="20.39" r="9.19"/><circle class="cls-4" cx="123.92" cy="98.1" r="9.19"/></g><rect class="cls-1" x="0.5" y="0.5" width="117.17" height="117.17"/><rect class="cls-1" x="0.5" y="0.5" width="117.17" height="117.17"/><circle class="cls-5" cx="34.85" cy="21.39" r="9.19"/><circle class="cls-5" cx="79.62" cy="21.39" r="9.19"/><circle class="cls-5" cx="13" cy="59.79" r="9.19"/><circle class="cls-4" cx="57.08" cy="59.79" r="9.19"/><circle class="cls-4" cx="101.26" cy="59.79" r="9.19"/><circle class="cls-5" cx="79.14" cy="98.1" r="9.19"/><circle class="cls-5" cx="34.96" cy="98.19" r="9.19"/></svg>